<svg width="32" height="32" viewBox="0 0 32 32" fill="none" xmlns="http://www.w3.org/2000/svg">
  <defs>
    <linearGradient id="gradient" x1="0%" y1="0%" x2="100%" y2="100%">
      <stop offset="0%" style="stop-color:#6366f1;stop-opacity:1" />
      <stop offset="50%" style="stop-color:#8b5cf6;stop-opacity:1" />
      <stop offset="100%" style="stop-color:#ec4899;stop-opacity:1" />
    </linearGradient>
    <filter id="glow">
      <feGaussianBlur stdDeviation="2" result="coloredBlur"/>
      <feMerge> 
        <feMergeNode in="coloredBlur"/>
        <feMergeNode in="SourceGraphic"/>
      </feMerge>
    </filter>
  </defs>
  
  <!-- Background Circle -->
  <circle cx="16" cy="16" r="15" fill="url(#gradient)" opacity="0.2"/>
  
  <!-- Shield Shape -->
  <path d="M16 2L8 6V16C8 22 16 30 16 30S24 22 24 16V6L16 2Z" fill="url(#gradient)" filter="url(#glow)"/>
  
  <!-- Lock Icon -->
  <rect x="12" y="18" width="8" height="6" rx="1" fill="white" opacity="0.9"/>
  <path d="M14 18V16C14 14.9 14.9 14 16 14S18 14.9 18 16V18" stroke="white" stroke-width="1.5" fill="none"/>
  
  <!-- Encryption Lines -->
  <path d="M6 12L10 8L14 12" stroke="white" stroke-width="1" fill="none" opacity="0.7"/>
  <path d="M18 12L22 8L26 12" stroke="white" stroke-width="1" fill="none" opacity="0.7"/>
  
  <!-- Center Dot -->
  <circle cx="16" cy="21" r="1" fill="white" opacity="0.8"/>
</svg>
