<svg width="32" height="32" viewBox="0 0 32 32" fill="none" xmlns="http://www.w3.org/2000/svg">
  <defs>
    <linearGradient id="gradient" x1="0%" y1="0%" x2="100%" y2="100%">
      <stop offset="0%" style="stop-color:#00ffcc;stop-opacity:1" />
      <stop offset="50%" style="stop-color:#9945ff;stop-opacity:1" />
      <stop offset="100%" style="stop-color:#00ffcc;stop-opacity:1" />
    </linearGradient>
    <filter id="glow">
      <feGaussianBlur stdDeviation="2" result="coloredBlur"/>
      <feMerge> 
        <feMergeNode in="coloredBlur"/>
        <feMergeNode in="SourceGraphic"/>
      </feMerge>
    </filter>
  </defs>
  
  <!-- Background Circle -->
  <circle cx="16" cy="16" r="15" fill="url(#gradient)" opacity="0.1"/>
  
  <!-- Trading Chart Icon -->
  <g filter="url(#glow)">
    <!-- Chart Candlestick -->
    <rect x="12" y="18" width="3" height="8" fill="url(#gradient)" opacity="0.8"/>
    <rect x="16" y="14" width="3" height="12" fill="url(#gradient)" opacity="0.8"/>
    <rect x="20" y="16" width="3" height="10" fill="url(#gradient)" opacity="0.8"/>
    
    <!-- Chart Lines -->
    <path d="M10 22L14 18L18 20L22 16L26 18" stroke="url(#gradient)" stroke-width="2" fill="none"/>
    
    <!-- Encryption Lock Overlay -->
    <rect x="14" y="8" width="4" height="3" rx="0.5" fill="url(#gradient)" opacity="0.9"/>
    <path d="M15 8V6C15 5.4 15.4 5 16 5S17 5.4 17 6V8" stroke="url(#gradient)" stroke-width="1" fill="none"/>
  </g>
  
  <!-- Data Flow Lines -->
  <path d="M4 8L8 12L12 8" stroke="url(#gradient)" stroke-width="1" fill="none" opacity="0.6"/>
  <path d="M20 8L24 12L28 8" stroke="url(#gradient)" stroke-width="1" fill="none" opacity="0.6"/>
</svg>
